<?xml version="1.0" encoding="UTF-8"?> <!-- Generator: Adobe Illustrator 25.4.1, SVG Export Plug-In . SVG Version: 6.00 Build 0) --> <svg xmlns="http://www.w3.org/2000/svg" xmlns:xlink="http://www.w3.org/1999/xlink" version="1.1" id="e4fde902-34f0-42ac-83bb-70aac2088463" x="0px" y="0px" viewBox="0 0 855.4 610.8" style="enable-background:new 0 0 855.4 610.8;" xml:space="preserve"> <style type="text/css"> .st0{fill:#E6E6E6;} .st1{fill:#112857;} .st2{fill:#3F3D56;} .st3{fill:#FFFFFF;} .st4{fill:#1D97FF;} .st5{fill:#FFFFFF;stroke:#1D97FF;stroke-miterlimit:10;} </style> <circle class="st0" cx="695.1" cy="110.7" r="13.6"></circle> <circle class="st0" cx="654.2" cy="110.7" r="13.6"></circle> <circle class="st0" cx="613.3" cy="110.7" r="13.6"></circle> <circle class="st0" cx="572.4" cy="110.7" r="13.6"></circle> <circle class="st0" cx="531.5" cy="110.7" r="13.6"></circle> <circle class="st0" cx="490.7" cy="110.7" r="13.6"></circle> <circle class="st0" cx="449.8" cy="110.7" r="13.6"></circle> <path class="st0" d="M412.7,121.8V99.7c0-3.1,2.5-5.5,5.5-5.5h308.3c3.1,0,5.5,2.5,5.5,5.5v22.1c0,3.1-2.5,5.5-5.5,5.5H418.3 C415.2,127.3,412.7,124.8,412.7,121.8z M418.3,96.3c-1.8,0-3.3,1.5-3.3,3.3v22.1c0,1.8,1.5,3.3,3.3,3.3h308.3c1.8,0,3.3-1.5,3.3-3.3 V99.7c0-1.8-1.5-3.3-3.3-3.3L418.3,96.3z"></path> <path class="st0" d="M660.6,3.2h67.7c1.8,0,3.2,1.4,3.2,3.2v69.1c0,1.8-1.4,3.2-3.2,3.2h-67.7c-1.8,0-3.2-1.4-3.2-3.2V6.4 C657.4,4.6,658.9,3.2,660.6,3.2 M660.6,0c-3.5,0-6.4,2.9-6.4,6.4v69.1c0,3.5,2.9,6.4,6.4,6.4h67.7c3.5,0,6.4-2.9,6.4-6.4V6.4 c0-3.5-2.9-6.4-6.4-6.4L660.6,0L660.6,0z"></path> <path class="st0" d="M429.6,3.2h67.7c1.8,0,3.2,1.4,3.2,3.2v69.1c0,1.8-1.4,3.2-3.2,3.2h-67.7c-1.8,0-3.2-1.4-3.2-3.2V6.4 C426.4,4.6,427.8,3.2,429.6,3.2 M429.6,0L429.6,0c-3.5,0-6.4,2.9-6.4,6.4v69.1v0c0,3.5,2.9,6.4,6.4,6.4h67.7l0,0 c3.5,0,6.4-2.9,6.4-6.4V6.4v0c0-3.5-2.9-6.4-6.4-6.4L429.6,0L429.6,0z"></path> <path class="st1" d="M199.6,136h67.7c1.8,0,3.2,1.4,3.2,3.2v69.1c0,1.8-1.4,3.2-3.2,3.2h-67.7c-1.8,0-3.2-1.4-3.2-3.2v-69.1 C196.4,137.4,197.9,136,199.6,136 M199.6,132.8c-3.5,0-6.4,2.9-6.4,6.4v69.1c0,3.5,2.9,6.4,6.4,6.4h67.7c3.5,0,6.4-2.9,6.4-6.4 v-69.1c0-3.5-2.9-6.4-6.4-6.4L199.6,132.8L199.6,132.8z"></path> <path class="st0" d="M537.1,74.7V25.1c0-3.9,3.2-7.1,7.1-7.1h69.4c3.9,0,7.1,3.2,7.1,7.1v49.7c0,3.9-3.2,7.1-7.1,7.1h-69.4 C540.3,81.8,537.1,78.6,537.1,74.7z M544.2,21.2c-2.2,0-3.9,1.7-3.9,3.9v49.7c0,2.1,1.7,3.9,3.9,3.9h69.4c2.1,0,3.9-1.7,3.9-3.9 V25.1c0-2.1-1.7-3.9-3.9-3.9H544.2z"></path> <path class="st0" d="M305.1,104.5l-13.8-47.7c-1.1-3.8,1.1-7.7,4.8-8.8l66.7-19.3c3.8-1.1,7.7,1.1,8.8,4.8l13.8,47.7 c1.1,3.8-1.1,7.7-4.8,8.8l-66.7,19.3C310.1,110.4,306.2,108.3,305.1,104.5z M297,51.1c-2.1,0.6-3.3,2.8-2.7,4.8l13.8,47.7 c0.6,2.1,2.8,3.3,4.8,2.7l66.7-19.3c2.1-0.6,3.3-2.8,2.7-4.8l-13.8-47.7c-0.6-2.1-2.8-3.3-4.8-2.7L297,51.1z"></path> <polygon class="st0" points="176.4,553 282.4,553 286.2,603.1 172.5,603.1 "></polygon> <rect x="164.8" y="597.3" class="st0" width="127.2" height="11.6"></rect> <path class="st2" d="M11.6,230.1c-6.4,0-11.6,5.2-11.6,11.6l0,265h457.8v-265l0,0c0-6.4-5.2-11.6-11.6-11.6H11.6L11.6,230.1z"></path> <path class="st0" d="M0,506.7l0,43.4l0,0c0,6.4,5.2,11.6,11.6,11.6l434.6,0l0,0c6.4,0,11.6-5.2,11.6-11.6v-43.4H0z"></path> <rect x="22.2" y="254.2" class="st0" width="412.5" height="231.3"></rect> <circle class="st2" cx="228.4" cy="533.7" r="11.6"></circle> <circle class="st3" cx="421.8" cy="261.8" r="2.2"></circle> <circle class="st3" cx="413.4" cy="261.8" r="2.2"></circle> <circle class="st3" cx="405.1" cy="261.8" r="2.2"></circle> <rect x="34.1" y="269.3" class="st3" width="389.9" height="194.2"></rect> <path class="st0" d="M317.6,298.8c-0.8,0-1.4,0.6-1.4,1.4v69.7c0,0.8,0.6,1.4,1.4,1.4h80.5c0.8,0,1.4-0.6,1.4-1.4v-69.7 c0-0.8-0.6-1.4-1.4-1.4H317.6z"></path> <path class="st0" d="M188.6,299c-0.8,0-1.4,0.6-1.4,1.4v69.5c0,0.8,0.6,1.4,1.4,1.4h80.2c0.8,0,1.4-0.6,1.4-1.4v-69.5 c0-0.8-0.6-1.4-1.4-1.4H188.6z"></path> <path class="st0" d="M60,298.3c-0.8,0-1.4,0.6-1.4,1.4v70.2c0,0.8,0.6,1.4,1.4,1.4h81c0.8,0,1.4-0.6,1.4-1.4v-70.2 c0-0.8-0.6-1.4-1.4-1.4H60z"></path> <rect x="449.8" y="3.2" class="st4" width="27.3" height="37.7"></rect> <rect x="565.3" y="22" class="st4" width="27.3" height="27.3"></rect> <rect x="681.5" y="3.2" class="st4" width="27.3" height="37.7"></rect> <rect x="318.9" y="41.1" transform="matrix(0.9609 -0.2769 0.2769 0.9609 -2.1601 94.2412)" class="st4" width="27.3" height="27.3"></rect> <rect x="219.8" y="136" class="st4" width="27.3" height="37.7"></rect> <path id="Path_391" class="st1" d="M67.1,412.1v-33.2h2.4v33.2H67.1z M70.6,412.1v-33.2h1.2v33.2H70.6z M74.2,412.1v-33.2h1.2v33.2 H74.2z M80.1,412.1v-33.2h1.2v33.2H80.1z M84.8,412.1v-33.2h2.3v33.2H84.8z M90.7,412.1v-33.2h1.2v33.2H90.7z M93,412.1v-33.2h1.2 v33.2H93z M95.4,412.1v-33.2h1.2v33.2H95.4z M100.1,412.1v-33.2h2.4v33.2H100.1z M106,412.1v-33.2h2.4v33.2H106z M110.8,412.1v-33.2 h2.4v33.2H110.8z M115.5,412.1v-33.2h2.4v33.2H115.5z M119,412.1v-33.2h2.4v33.2H119z M124.9,412.1v-33.2h3.5v33.2H124.9z M129.6,412.1v-33.2h1.2v33.2H129.6z M132,412.1v-33.2h2.4v33.2H132z"></path> <path id="Path_391_00000031176333187673705290000005245274433642850184_" class="st1" d="M197.1,412.1v-33.2h2.4v33.2H197.1z M200.7,412.1v-33.2h1.2v33.2H200.7z M204.2,412.1v-33.2h1.2v33.2H204.2z M210.1,412.1v-33.2h1.2v33.2H210.1z M214.9,412.1v-33.2 h2.3v33.2H214.9z M220.7,412.1v-33.2h1.2v33.2H220.7z M223.1,412.1v-33.2h1.2v33.2H223.1z M225.4,412.1v-33.2h1.2v33.2H225.4z M230.2,412.1v-33.2h2.4v33.2H230.2z M236.1,412.1v-33.2h2.4v33.2H236.1z M240.8,412.1v-33.2h2.4v33.2H240.8z M245.5,412.1v-33.2 h2.4v33.2H245.5z M249,412.1v-33.2h2.4v33.2H249z M255,412.1v-33.2h3.5v33.2H255z M259.6,412.1v-33.2h1.2v33.2H259.6z M262,412.1 v-33.2h2.4v33.2H262z"></path> <path id="Path_391_00000083060931772244438030000011815664459022448557_" class="st1" d="M324.2,412.1v-33.2h2.4v33.2H324.2z M327.7,412.1v-33.2h1.2v33.2H327.7z M331.3,412.1v-33.2h1.2v33.2H331.3z M337.2,412.1v-33.2h1.2v33.2H337.2z M341.9,412.1v-33.2 h2.3v33.2H341.9z M347.8,412.1v-33.2h1.2v33.2H347.8z M350.1,412.1v-33.2h1.2v33.2H350.1z M352.5,412.1v-33.2h1.2v33.2H352.5z M357.2,412.1v-33.2h2.4v33.2H357.2z M363.1,412.1v-33.2h2.4v33.2H363.1z M367.9,412.1v-33.2h2.4v33.2H367.9z M372.6,412.1v-33.2 h2.4v33.2H372.6z M376.1,412.1v-33.2h2.4v33.2H376.1z M382.1,412.1v-33.2h3.5v33.2H382.1z M386.7,412.1v-33.2h1.2v33.2H386.7z M389.1,412.1v-33.2h2.4v33.2H389.1z"></path> <circle id="af1d3ae0-b86a-44f8-8168-f2f371efc620" class="st4" cx="228.4" cy="437.9" r="18.2"></circle> <path id="b4906b3b-71df-4c7e-84d8-52e6769e6d26" class="st3" d="M226.6,444.9c-0.4,0-0.8-0.1-1.1-0.4l0,0l-4.3-3.3 c-0.8-0.6-1-1.8-0.4-2.7c0.6-0.8,1.8-1,2.7-0.4c0,0,0,0,0,0l2.8,2.1l6.5-8.5c0.6-0.8,1.8-1,2.7-0.4l0,0l0,0.1l0-0.1 c0.8,0.6,1,1.8,0.4,2.7l-7.7,10C227.8,444.6,227.2,444.9,226.6,444.9L226.6,444.9z"></path> <circle id="af1d3ae0-b86a-44f8-8168-f2f371efc620_00000055688204303233647800000009280151252248516798_" class="st4" cx="357.8" cy="437.9" r="18.2"></circle> <path id="b4906b3b-71df-4c7e-84d8-52e6769e6d26_00000026138717643818300610000007029179740332096160_" class="st3" d="M356,444.9 c-0.4,0-0.8-0.1-1.1-0.4l0,0l-4.3-3.3c-0.8-0.6-1-1.8-0.4-2.7s1.8-1,2.7-0.4c0,0,0,0,0,0l2.8,2.1l6.5-8.5c0.6-0.8,1.8-1,2.7-0.4l0,0 l0,0.1l0-0.1c0.8,0.6,1,1.8,0.4,2.7l-7.7,10C357.2,444.6,356.6,444.9,356,444.9L356,444.9z"></path> <circle id="ba183dc1-a597-4106-bea7-eb7523e98551" class="st5" cx="100.1" cy="436.8" r="17"></circle> <path id="a4d5b786-8a25-41ee-bd38-08ceac89f4c5" class="st4" d="M102.8,437.4V428H98v9.4h-2.3l2.3,4.1l2.3,4.1l2.3-4.1l2.3-4.1 L102.8,437.4z"></path> </svg> 