<?xml version="1.0" encoding="UTF-8"?> <svg xmlns="http://www.w3.org/2000/svg" width="36" height="8" viewBox="0 0 36 8" fill="none"><path d="M4.00008 0L4.89815 2.76399H7.80438L5.45319 4.47222L6.35127 7.23621L4.00008 5.52797L1.64889 7.23621L2.54697 4.47222L0.195778 2.76399H3.10201L4.00008 0Z" fill="#FFD44A"></path><path d="M12.0011 0L12.8991 2.76399H15.8054L13.4542 4.47222L14.3522 7.23621L12.0011 5.52797L9.64987 7.23621L10.5479 4.47222L8.19675 2.76399H11.103L12.0011 0Z" fill="#FFD44A"></path><path d="M28.0011 0L28.8991 2.76399H31.8054L29.4542 4.47222L30.3522 7.23621L28.0011 5.52797L25.6499 7.23621L26.5479 4.47222L24.1968 2.76399H27.103L28.0011 0Z" fill="#FFD44A"></path><path d="M20.002 0L20.9001 2.76399H23.8063L21.4551 4.47222L22.3532 7.23621L20.002 5.52797L17.6508 7.23621L18.5489 4.47222L16.1977 2.76399H19.104L20.002 0Z" fill="#FFD44A"></path><path d="M35.9996 5.52797V0L35.1015 2.76399H32.1953L34.5465 4.47222L33.6484 7.23621L35.9996 5.52797Z" fill="#FFD44A"></path></svg> 